<?xml version="1.0" encoding="iso-8859-1"?>
<!-- Generator: Adobe Illustrator 19.0.0, SVG Export Plug-In . SVG Version: 6.00 Build 0)  -->
<svg version="1.1" id="Capa_1" xmlns="http://www.w3.org/2000/svg" xmlns:xlink="http://www.w3.org/1999/xlink" x="0px" y="0px"
	 viewBox="0 0 512 512" style="enable-background:new 0 0 512 512;" xml:space="preserve">
<g>
	<g>
		<path d="M499.015,345.43l-79.646-137.949c-0.311-0.539-0.664-1.037-1.054-1.494L342.494,74.66
			c-8.447-16.895-21.565-30.833-37.955-40.318c-14.709-8.517-31.424-13.02-48.337-13.02c-34.409,0-66.481,18.473-83.706,48.22
			L92.851,207.48c-0.31,0.537-0.567,1.097-0.77,1.673l-74.46,128.984C6.091,354.509,0,373.759,0,393.843
			c0,53.395,43.44,96.835,96.835,96.835h318.56c0.73,0,1.442-0.078,2.127-0.227c16.208-0.342,32.173-4.818,46.297-12.997
			C509.922,450.759,525.708,391.527,499.015,345.43z M453.797,460.146c-11.665,6.754-24.902,10.325-38.281,10.325h-0.107
			c-0.684,0.018-1.367,0.069-2.031,0.206H96.835c-42.366,0-76.834-34.468-76.834-76.834c0-16.066,4.909-31.456,14.197-44.505
			c0.184-0.258,0.355-0.525,0.514-0.799l75.423-130.653l0.116-0.193c0.347-0.582,0.632-1.192,0.853-1.822L189.81,79.553
			c13.655-23.581,39.094-38.23,66.391-38.23c13.399,0,26.647,3.571,38.317,10.328c13.069,7.564,23.512,18.693,30.201,32.184
			c0.094,0.189,0.193,0.376,0.299,0.559l76.887,133.169c0.311,0.539,0.664,1.037,1.054,1.494L481.7,355.441
			C502.874,392.007,490.356,438.977,453.797,460.146z"/>
	</g>
</g>
<g>
	<g>
		<path d="M255.992,133.059c-19.428,0-35.234,15.807-35.234,35.236v109.101c0,19.429,15.806,35.236,35.234,35.236
			s35.234-15.807,35.234-35.236V168.295C291.227,148.866,275.42,133.059,255.992,133.059z M271.226,277.396
			c0,8.4-6.833,15.235-15.233,15.235c-8.399,0-15.233-6.834-15.233-15.235V168.295c0-8.4,6.833-15.235,15.233-15.235
			c8.399,0,15.233,6.834,15.233,15.235V277.396z"/>
	</g>
</g>
<g>
	<g>
		<path d="M255.992,334.559c-19.428,0-35.234,15.806-35.234,35.234s15.806,35.234,35.234,35.234s35.234-15.806,35.234-35.234
			C291.227,350.366,275.42,334.559,255.992,334.559z M255.992,385.027c-8.399,0-15.233-6.833-15.233-15.233
			s6.833-15.233,15.233-15.233s15.233,6.833,15.233,15.233C271.226,378.194,264.392,385.027,255.992,385.027z"/>
	</g>
</g>
<g>
	<g>
		<path d="M81.048,318.277c-4.783-2.76-10.9-1.123-13.661,3.661l-20.517,35.541c-2.761,4.783-1.122,10.9,3.661,13.661
			c1.575,0.909,3.294,1.341,4.99,1.341c3.456,0,6.818-1.793,8.67-5.002l20.517-35.541C87.471,327.154,85.833,321.038,81.048,318.277
			z"/>
	</g>
</g>
<g>
	<g>
		<path d="M95.525,293.186c-4.785-2.757-10.9-1.113-13.658,3.672l-0.118,0.205c-2.757,4.785-1.113,10.9,3.672,13.658
			c1.573,0.906,3.289,1.337,4.983,1.337c3.459,0,6.823-1.797,8.674-5.009l0.118-0.205
			C101.956,302.058,100.311,295.943,95.525,293.186z"/>
	</g>
</g>
<g>
</g>
<g>
</g>
<g>
</g>
<g>
</g>
<g>
</g>
<g>
</g>
<g>
</g>
<g>
</g>
<g>
</g>
<g>
</g>
<g>
</g>
<g>
</g>
<g>
</g>
<g>
</g>
<g>
</g>
</svg>
